{"title":"Tony Roberts Wired 2010 VODRiP XviD - VISUALiSE","uid":6814212,"size":731876859,"categoryP":"video","categoryS":"movies","magnet":"?xt=urn:btih:d0a5884e236cad01e0ce316c4e38b76217ef9259&amp;dn=Tony+Roberts+Wired+2010+VODRiP+XviD+-+VISUALiSE&amp;tr=udp%3A%2F%2Ftracker.openbittorrent.com%3A80&amp;tr=udp%3A%2F%2Fopen.demonii.com%3A1337&amp;tr=udp%3A%2F%2Ftracker.coppersurfer.tk%3A6969&amp;tr=udp%3A%2F%2Fexodus.desync.com%3A6969","seeders":1,"leechers":0,"uploader":"TvTeam","files":4,"time":1321136359,"description":". \n &lt;a href=&quot;\nhttp://www.torrenting.com&quot; rel=&quot;nofollow&quot; target=&quot;_NEW&quot;&gt;\nhttp://www.torrenting.com&lt;/a&gt;          :     Once &amp; For all ;)\n\n\n               www . Torrenting . Com \n\n(((((((((((((= Enjoy No RAR releases =))))))))))))))))))))\n\n\n...................................NFO:....................................\n\n.[pre]\noooooo     oooo  o8o   .oooooo..o ooooo     ooo       .o.       ooooo         o8o   .oooooo..o oooooooooooo\n`888.     .8'   `&quot;'  d8P'    `Y8 `888'     `8'      .888.      `888'         `&quot;'  d8P'    `Y8 `888'     `8\n `888.   .8'   oooo  Y88bo.       888       8      .8&quot;888.      888         oooo  Y88bo.       888        \n  `888. .8'    `888   `&quot;Y8888o.   888       8     .8' `888.     888         `888   `&quot;Y8888o.   888oooo8    \n   `888.8'      888       `&quot;Y88b  888       8    .88ooo8888.    888          888       `&quot;Y88b  888    &quot;    \n    `888'       888  oo     .d8P  `88.    .8'   .8'     `888.   888       o  888  oo     .d8P  888       o\n     `8'       o888o 8&quot;&quot;88888P'     `YbodP'    o88o     o8888o o888ooooood8 o888o 8&quot;&quot;88888P'  o888ooooood8\n\n\n\n\n\nTitle: Tony Roberts Wired 2010 VODRiP XviD - VISUALiSE\nFormat: Xvid\nLanguage: English\nSubtitles: No\nImdb: http://www.imdb.com/title/tt1611184/\n\nPlot:\nComedian Tony Roberts showcases his hilarious and refreshingly \nenergetic comedy in his first stand-up comedy special. \nThe Detroit native draws from his own experiences to bring the \nhouse down with laughter. Filmed in Hollywood, CA in front of a \nlive audience, the raucously funny comic will keep you in laughter.\n\nSources:\nVideo: Netflix Ripper - Many Thanks ;) :P\nAudio: Netflix Ripper - Many Thanks ;) :D\n\nRelease Notes:\nVISUALiSE Bringing you.........................\nTony Roberts Wired 2010 VODRiP XviD - VISUALiSE\nCouldnt really see this about so thought we would\nput it out there for all to share ;) :)\nas some parts are funny as hell :P :P\n\nSpecial thanks to the Netflix ripper :P :D :P \n\nDone our normal thing on this ran some filters and\na little sharpen then muxed the AC3 audio back \nto our encode :D :D\n\nenjoy. :P\n\nInfo:\n\nVideo\nID                               : 0\nFormat                           : MPEG-4 Visual\nFormat profile                   : Advanced Simple@L5\nFormat settings, BVOP            : 2\nFormat settings, QPel            : No\nFormat settings, GMC             : No warppoints\nFormat settings, Matrix          : Default (H.263)\nCodec ID                         : XVID\nCodec ID/Hint                    : XviD\nDuration                         : 59mn 36s\nBit rate                         : 1 499 Kbps\nWidth                            : 720 pixels\nHeight                           : 404 pixels\nDisplay aspect ratio             : 16:9\nFrame rate                       : 25.000 fps\nColor space                      : YUV\nChroma subsampling               : 4:2:0\nBit depth                        : 8 bits\nScan type                        : Progressive\nCompression mode                 : Lossy\nBits/(Pixel*Frame)               : 0.206\nStream size                      : 639 MiB (92%)\n\nAudio\nID                               : 1\nFormat                           : AC-3\nFormat/Info                      : Audio Coding 3\nMode extension                   : CM (complete main)\nCodec ID                         : 2000\nDuration                         : 59mn 36s\nBit rate mode                    : Constant\nBit rate                         : 128 Kbps\nChannel(s)                       : 2 channels\nChannel positions                : Front: L R\nSampling rate                    : 44.1 KHz\nBit depth                        : 16 bits\nCompression mode                 : Lossy\nStream size                      : 54.6 MiB (8%)\nAlignment                        : Aligned on interleaves\nInterleave, duration             : 35 ms (0.87 video frame)\n\nScreens:\n[IMG]http://i.imgur.com/LZnDG.png[/IMG]\n[IMG]http://i.imgur.com/Gk9OX.png[/IMG]\n[IMG]http://i.imgur.com/CrZcW.png[/IMG]\n[IMG]http://i.imgur.com/HND2c.png[/IMG]\n[IMG]http://i.imgur.com/2swk3.png[/IMG]\n[IMG]http://i.imgur.com/QFM5H.png[/IMG]\n\n\nGreetz\nThe Select Few .... YOU Know Who YOU Are ;)\nThe Rest Of YOU ....................SUCK :P\n","torrent":{"xt":"urn:btih:d0a5884e236cad01e0ce316c4e38b76217ef9259","amp;dn":"Tony+Roberts+Wired+2010+VODRiP+XviD+-+VISUALiSE","amp;tr":["udp%3A%2F%2Ftracker.openbittorrent.com%3A80","udp%3A%2F%2Fopen.demonii.com%3A1337","udp%3A%2F%2Ftracker.coppersurfer.tk%3A6969","udp%3A%2F%2Fexodus.desync.com%3A6969"],"infoHash":"d0a5884e236cad01e0ce316c4e38b76217ef9259","infoHashBuffer":{"type":"Buffer","data":[208,165,136,78,35,108,173,1,224,206,49,108,78,56,183,98,23,239,146,89]},"announce":[],"urlList":[]}}